<mxfile host="app.diagrams.net" modified="2023-11-26T14:35:05.607Z" agent="Mozilla/5.0 (Macintosh; Intel Mac OS X 10_15_7) AppleWebKit/605.1.15 (KHTML, like Gecko) Version/17.1 Safari/605.1.15" version="22.1.4" etag="1R9BOyFuE1lc-eHQ-fws" type="github">
  <diagram name="Page-1" id="CVScR74E5d1lnyuFwOXv">
    <mxGraphModel>
      <root>
        <mxCell id="0" />
        <mxCell id="1" parent="0" />
      </root>
    </mxGraphModel>
  </diagram>
</mxfile>
